<svg width="80" height="80" viewBox="0 0 80 80" fill="none" xmlns="http://www.w3.org/2000/svg">
<path d="M40 35C48.2842 35 55 28.2842 55 20C55 11.7158 48.2842 5 40 5C31.7158 5 25 11.7158 25 20C25 28.2842 31.7158 35 40 35Z" fill="#C72C41"/>
<path d="M70 60C70 51.7155 63.2845 45 55 45H25C16.7158 45 10 51.7155 10 60V75H70V60Z" fill="#C72C41"/>
<path d="M39.3831 61.4475L42.7441 59.4012H51.0931L43.6971 64.0237L39.3831 61.4475Z" fill="#2A2B2A"/>
<path d="M28.907 60.0781L33.106 62.7649L51.093 51.4293H42.744L28.907 60.0781Z" fill="#2A2B2A"/>
<path d="M35.176 64.0494L39.435 66.6719L43.697 64.0238L39.383 61.4475L35.176 64.0494Z" fill="#2A2B2A"/>
<path d="M39.4351 66.6719L43.6971 64.0238L50.9891 68.6332H42.5931L39.4351 66.6719Z" fill="#555555"/>
<path d="M39.4351 66.6719L43.4061 65.8463L42.0681 65.0356L39.4351 66.6719Z" fill="#555555"/>
</svg>
